# xmcd
#
# Track frame offsets:
#	151
#	18434
#	33933
#	54697
#	71620
#	87908
#	111662
#	127549
#	140664
#	161966
#	187232
#	202963
#
# Disc length: 3012 seconds
#
# Revision: 1
# Processed by: cddbd v1.5.2PL0 Copyright (c) Steve Scherf et al.
# Submitted via: audiograbber 1.83.01
#
DISCID=ae0bc20c
DTITLE=Ronald Beauchamp - Les Baby Boomers
DYEAR=1900
DGENRE=Country
TTITLE0=Les Baby Boomers(Ronald Beauchamp-Ronald Beauchamp)
TTITLE1=L'amour à Une Brune(Traditionnelle)
TTITLE2=L'ail Des Bois(Version de Clap Clap Song-Ronald Beauchamp)
TTITLE3=Ma Fille Adorée(Ronald Beauchamp-Ronald Beauchamp)
TTITLE4=Allez Viens Viens Viens(F.Michael-M.Jordan)
TTITLE5=Medley de Chansons Folkloriques(Traditionnel-Ronald Beauchamp)
TTITLE6=C'était Le Bon Vieux Temps(Ronald Beauchamp-Ronald Beauchamp)
TTITLE7=Les Tailleurs De Pierre(Traditionnel-Ronald Beauchamp)
TTITLE8=Vivre Au Chalet(Ronald Beauchamp-Ronald Beauchamp)
TTITLE9=La Fête Des Mères(Ronald Beauchamp-Ronald Beauchamp)
TTITLE10=Ma P'tite Auberge(Pinto-Ronald Beauchamp)
TTITLE11=Vieillir Ensemble(Ronald Beauchamp-Ronald Beauchamp)
EXTD=
EXTT0=
EXTT1=
EXTT2=
EXTT3=
EXTT4=
EXTT5=
EXTT6=
EXTT7=
EXTT8=
EXTT9=
EXTT10=
EXTT11=
PLAYORDER=
